<svg id="Layer_1" data-name="Layer 1" xmlns="http://www.w3.org/2000/svg" viewBox="0 0 99.21 99.21"><defs><style>.cls-1{fill:#fff;}</style></defs><title>Flying Fish Social Icons</title><path class="cls-1" d="M64.39,26.4H34.82A8.57,8.57,0,0,0,26.26,35V64.52a8.58,8.58,0,0,0,8.56,8.57H64.39A8.57,8.57,0,0,0,73,64.52V35A8.57,8.57,0,0,0,64.39,26.4ZM49.61,65.11A15.37,15.37,0,1,1,65,49.74,15.38,15.38,0,0,1,49.61,65.11ZM65.47,37.55a3.64,3.64,0,1,1,3.64-3.64A3.64,3.64,0,0,1,65.47,37.55Z"/><path class="cls-1" d="M49.61,40.87a8.88,8.88,0,1,0,8.87,8.87A8.88,8.88,0,0,0,49.61,40.87Z"/><path class="cls-1" d="M49.61,0a49.61,49.61,0,1,0,49.6,49.61A49.61,49.61,0,0,0,49.61,0ZM79.45,64.52A15.08,15.08,0,0,1,64.39,79.58H34.82a15.07,15.07,0,0,1-15-15.06V35A15.07,15.07,0,0,1,34.82,19.9H64.39A15.08,15.08,0,0,1,79.45,35Z"/></svg>