<svg id="Layer_1" data-name="Layer 1" xmlns="http://www.w3.org/2000/svg" viewBox="0 0 99.21 99.21"><defs><style>.cls-1{fill:#fff;}</style></defs><title>Flying Fish Social Icons</title><path class="cls-1" d="M49.61,0a49.61,49.61,0,1,0,49.6,49.61A49.61,49.61,0,0,0,49.61,0ZM74.07,41.79c0,.51,0,1,0,1.53,0,15.67-11.93,33.74-33.74,33.74A33.49,33.49,0,0,1,22.2,71.73a23.83,23.83,0,0,0,17.55-4.91,11.84,11.84,0,0,1-11.07-8.23,12.49,12.49,0,0,0,2.23.21A11.87,11.87,0,0,0,34,58.38a11.86,11.86,0,0,1-9.51-11.62v-.15a11.78,11.78,0,0,0,5.37,1.48,11.86,11.86,0,0,1-3.67-15.83A33.64,33.64,0,0,0,50.66,44.65a12,12,0,0,1-.31-2.7,11.87,11.87,0,0,1,20.52-8.12A23.75,23.75,0,0,0,78.4,31a11.92,11.92,0,0,1-5.22,6.56A23.85,23.85,0,0,0,80,35.65,24,24,0,0,1,74.07,41.79Z"/></svg>